<svg width="108" height="108" viewBox="0 0 108 108" fill="none" xmlns="http://www.w3.org/2000/svg">
<circle cx="3.97059" cy="3.97059" r="3.97059" fill="white" fill-opacity="0.5"/>
<circle cx="18.2647" cy="3.97059" r="3.97059" fill="white" fill-opacity="0.5"/>
<circle cx="32.5588" cy="3.97059" r="3.97059" fill="white" fill-opacity="0.5"/>
<circle cx="46.8529" cy="3.97059" r="3.97059" fill="white" fill-opacity="0.5"/>
<circle cx="3.97059" cy="18.2647" r="3.97059" fill="white" fill-opacity="0.5"/>
<circle cx="18.2647" cy="18.2647" r="3.97059" fill="white" fill-opacity="0.5"/>
<circle cx="32.5588" cy="18.2647" r="3.97059" fill="white" fill-opacity="0.5"/>
<circle cx="46.8529" cy="18.2647" r="3.97059" fill="white" fill-opacity="0.5"/>
<circle cx="3.97059" cy="32.5588" r="3.97059" fill="white" fill-opacity="0.5"/>
<circle cx="18.2647" cy="32.5588" r="3.97059" fill="white" fill-opacity="0.5"/>
<circle cx="32.5588" cy="32.5588" r="3.97059" fill="white" fill-opacity="0.5"/>
<circle cx="46.8529" cy="32.5588" r="3.97059" fill="white" fill-opacity="0.5"/>
<circle cx="3.97059" cy="46.8529" r="3.97059" fill="white" fill-opacity="0.5"/>
<circle cx="18.2647" cy="46.8529" r="3.97059" fill="white" fill-opacity="0.5"/>
<circle cx="32.5588" cy="46.8529" r="3.97059" fill="white" fill-opacity="0.5"/>
<circle cx="46.8529" cy="46.8529" r="3.97059" fill="white" fill-opacity="0.5"/>
<circle cx="61.1471" cy="3.97059" r="3.97059" fill="white" fill-opacity="0.5"/>
<circle cx="75.4412" cy="3.97059" r="3.97059" fill="white" fill-opacity="0.5"/>
<circle cx="89.7353" cy="3.97059" r="3.97059" fill="white" fill-opacity="0.5"/>
<circle cx="104.029" cy="3.97059" r="3.97059" fill="white" fill-opacity="0.5"/>
<circle cx="61.1471" cy="18.2647" r="3.97059" fill="white" fill-opacity="0.5"/>
<circle cx="75.4412" cy="18.2647" r="3.97059" fill="white" fill-opacity="0.5"/>
<circle cx="89.7353" cy="18.2647" r="3.97059" fill="white" fill-opacity="0.5"/>
<circle cx="104.029" cy="18.2647" r="3.97059" fill="white" fill-opacity="0.5"/>
<circle cx="61.1471" cy="32.5588" r="3.97059" fill="white" fill-opacity="0.5"/>
<circle cx="75.4412" cy="32.5588" r="3.97059" fill="white" fill-opacity="0.5"/>
<circle cx="89.7353" cy="32.5588" r="3.97059" fill="white" fill-opacity="0.5"/>
<circle cx="104.029" cy="32.5588" r="3.97059" fill="white" fill-opacity="0.5"/>
<circle cx="61.1471" cy="46.8529" r="3.97059" fill="white" fill-opacity="0.5"/>
<circle cx="75.4412" cy="46.8529" r="3.97059" fill="white" fill-opacity="0.5"/>
<circle cx="89.7353" cy="46.8529" r="3.97059" fill="white" fill-opacity="0.5"/>
<circle cx="104.029" cy="46.8529" r="3.97059" fill="white" fill-opacity="0.5"/>
<circle cx="3.97059" cy="61.1471" r="3.97059" fill="white" fill-opacity="0.5"/>
<circle cx="18.2647" cy="61.1471" r="3.97059" fill="white" fill-opacity="0.5"/>
<circle cx="32.5588" cy="61.1471" r="3.97059" fill="white" fill-opacity="0.5"/>
<circle cx="46.8529" cy="61.1471" r="3.97059" fill="white" fill-opacity="0.5"/>
<circle cx="3.97059" cy="75.4412" r="3.97059" fill="white" fill-opacity="0.5"/>
<circle cx="18.2647" cy="75.4412" r="3.97059" fill="white" fill-opacity="0.5"/>
<circle cx="32.5588" cy="75.4412" r="3.97059" fill="white" fill-opacity="0.5"/>
<circle cx="46.8529" cy="75.4412" r="3.97059" fill="white" fill-opacity="0.5"/>
<circle cx="3.97059" cy="89.7353" r="3.97059" fill="white" fill-opacity="0.5"/>
<circle cx="18.2647" cy="89.7353" r="3.97059" fill="white" fill-opacity="0.5"/>
<circle cx="32.5588" cy="89.7353" r="3.97059" fill="white" fill-opacity="0.5"/>
<circle cx="46.8529" cy="89.7353" r="3.97059" fill="white" fill-opacity="0.5"/>
<circle cx="3.97059" cy="104.029" r="3.97059" fill="white" fill-opacity="0.5"/>
<circle cx="18.2647" cy="104.029" r="3.97059" fill="white" fill-opacity="0.5"/>
<circle cx="32.5588" cy="104.029" r="3.97059" fill="white" fill-opacity="0.5"/>
<circle cx="46.8529" cy="104.029" r="3.97059" fill="white" fill-opacity="0.5"/>
<circle cx="61.1471" cy="61.1471" r="3.97059" fill="white" fill-opacity="0.5"/>
<circle cx="75.4412" cy="61.1471" r="3.97059" fill="white" fill-opacity="0.5"/>
<circle cx="89.7353" cy="61.1471" r="3.97059" fill="white" fill-opacity="0.5"/>
<circle cx="104.029" cy="61.1471" r="3.97059" fill="white" fill-opacity="0.5"/>
<circle cx="61.1471" cy="75.4412" r="3.97059" fill="white" fill-opacity="0.5"/>
<circle cx="75.4412" cy="75.4412" r="3.97059" fill="white" fill-opacity="0.5"/>
<circle cx="89.7353" cy="75.4412" r="3.97059" fill="white" fill-opacity="0.5"/>
<circle cx="104.029" cy="75.4412" r="3.97059" fill="white" fill-opacity="0.5"/>
<circle cx="61.1471" cy="89.7353" r="3.97059" fill="white" fill-opacity="0.5"/>
<circle cx="75.4412" cy="89.7353" r="3.97059" fill="white" fill-opacity="0.5"/>
<circle cx="89.7353" cy="89.7353" r="3.97059" fill="white" fill-opacity="0.5"/>
<circle cx="104.029" cy="89.7353" r="3.97059" fill="white" fill-opacity="0.5"/>
<circle cx="61.1471" cy="104.029" r="3.97059" fill="white" fill-opacity="0.5"/>
<circle cx="75.4412" cy="104.029" r="3.97059" fill="white" fill-opacity="0.5"/>
<circle cx="89.7353" cy="104.029" r="3.97059" fill="white" fill-opacity="0.5"/>
<circle cx="104.029" cy="104.029" r="3.97059" fill="white" fill-opacity="0.5"/>
</svg>
