<svg width="45" height="34" viewBox="0 0 45 34" fill="none" xmlns="http://www.w3.org/2000/svg">
<path d="M20.4 21.5C20.4667 22.0333 20.5 22.5 20.5 22.9C20.5 23.2333 20.5 23.6667 20.5 24.2C20.5 27 19.6667 29.2667 18 31C16.3333 32.7333 14.0667 33.6 11.2 33.6C7.93333 33.6 5.4 32.4667 3.6 30.2C1.8 27.9333 0.9 25 0.9 21.4C0.9 19.2 1.23333 17.0333 1.9 14.9C2.56667 12.7667 3.5 10.7667 4.7 8.9C5.96667 6.96666 7.5 5.26666 9.3 3.8C11.1 2.26666 13.1 0.999996 15.3 -3.33786e-06L19.5 3.8C17.6333 5.13333 16.1667 6.66666 15.1 8.4C14.1 10.1333 13.6 11.8667 13.6 13.6C13.6 15.4667 14.1667 17.1333 15.3 18.6C16.5 20 18.2 20.9667 20.4 21.5ZM44.6 21.5C44.6667 22.0333 44.7 22.5 44.7 22.9C44.7 23.2333 44.7 23.6667 44.7 24.2C44.7 27 43.8667 29.2667 42.2 31C40.5333 32.7333 38.2667 33.6 35.4 33.6C32.1333 33.6 29.6 32.4667 27.8 30.2C26 27.9333 25.1 25 25.1 21.4C25.1 19.2 25.4333 17.0333 26.1 14.9C26.7667 12.7667 27.7 10.7667 28.9 8.9C30.1667 6.96666 31.7 5.26666 33.5 3.8C35.3 2.26666 37.3 0.999996 39.5 -3.33786e-06L43.7 3.8C41.8333 5.13333 40.3667 6.66666 39.3 8.4C38.3 10.1333 37.8 11.8667 37.8 13.6C37.8 15.4667 38.3667 17.1333 39.5 18.6C40.7 20 42.4 20.9667 44.6 21.5Z" fill="#E77A66"/>
</svg>
