<svg width="193" height="105" viewBox="0 0 193 105" fill="none" xmlns="http://www.w3.org/2000/svg">
<g opacity="0.3">
<path opacity="0.3" d="M146.418 36.8396C140.69 28.2398 144.127 3.58666 138.967 2.10455C134.385 0.72583 120.172 10.1269 113.178 22.6302C106.183 35.1248 97.5865 53.815 115.012 65.6289C122.972 71.7642 115.684 75.1765 111.817 72.7034C111.102 72.2467 110.171 72.8154 110.335 73.6513C112.023 82.432 121.723 81.958 123.264 74.3406C124.453 68.4811 117.338 56.1933 115.124 50.2648C109.732 35.8228 125.668 16.4432 125.668 16.4432C125.668 16.4432 111.515 39.7262 117.149 51.1007C117.174 51.1437 117.2 51.1954 117.226 51.2385C132.697 74.0649 127.744 78.3906 122.506 80.9068C121.55 81.3635 121.946 82.8283 122.997 82.7163C138.821 81.148 144.48 66.6715 145.488 64.5862C148.003 57.8219 146.462 45.784 140.216 40.0537C138.726 38.7353 137.348 40.3381 132.163 40.0537C128.105 39.8297 128.941 36.7965 129.501 35.4867C129.656 35.1248 129.561 34.7026 129.277 34.4268C128.743 33.927 127.985 33.1343 127.959 32.712C127.95 32.5138 128.08 32.3415 128.278 32.1778C128.751 31.7986 128.777 31.1179 128.338 30.7043C128.08 30.463 127.881 30.2045 127.838 29.9546C127.778 29.5496 128.286 28.843 128.76 28.2829C129.13 27.8434 129.036 27.1799 128.553 26.8697C127.881 26.4389 127.115 25.8185 127.089 25.1894C127.046 24.0692 129.733 22.2252 132.3 16.8827C133.877 13.6082 134.101 8.57589 135.772 5.94772C136.28 5.14634 137.529 5.50825 137.529 6.45612C137.563 13.1084 132.946 32.6776 143.869 39.4677C146.16 40.7258 160.829 52.195 148.796 66.9817C162.113 57.7099 150.019 42.1304 146.418 36.8396Z" fill="white"/>
<path opacity="0.3" d="M158.504 1.01036C157.703 0.648451 156.884 1.47568 157.246 2.27706C161.131 10.9285 157.039 33.4533 169.564 41.3119C182.166 50.2994 180.004 61.4326 176.55 69.05C176.076 70.1012 174.491 69.567 174.749 68.4382C176.636 60.321 176.041 55.3059 174.37 51.1698C172.191 45.7842 158.443 31.4541 156.264 24.2245C154.197 17.3568 153.473 -0.988774 144.351 0.312389C143.645 0.415793 143.283 1.23441 143.696 1.81174C152.25 13.6859 147.099 24.7846 159.985 41.1827C170.287 54.2977 170.985 71.5317 165.61 81.1827C165.007 82.2598 163.388 81.3636 163.948 80.2607C173.716 60.726 161.062 45.7066 157.074 39.3473C154.705 35.5903 149.743 32.4709 149.278 23.7592C148.985 18.1668 146.393 9.9634 143.929 5.02587C143.412 4.00045 141.862 4.58641 142.155 5.698C145.342 17.667 141.853 32.9535 154.205 47.723C163.284 57.6756 167.583 78.6579 154.369 90.5235C153.645 91.1698 154.223 92.3503 155.179 92.1779C170.193 89.4205 179.022 72.8328 182.864 61.8203C188.368 45.4222 172.665 31.3249 169.684 25.5946C166.988 20.4072 165.412 4.12971 158.504 1.01036Z" fill="white"/>
<path opacity="0.3" d="M178.161 19.0111C174.267 12.8069 169.314 8.42089 165.739 5.61175C164.938 4.98271 163.844 5.90473 164.309 6.80951C169.926 17.6324 169.762 22.8629 172.312 26.5768C174.681 30.0236 178.548 31.2559 182.519 40.1658C182.967 41.174 184.483 40.7604 184.345 39.666C183.527 33.5135 181.701 24.6553 178.161 19.0111Z" fill="white"/>
<path opacity="0.3" d="M154.912 10.2391C155.11 11.3248 155.687 14.7113 156.402 18.0547C156.643 19.1835 158.306 18.9853 158.288 17.8307C158.194 11.9884 158.719 11.4886 157.875 7.65402C156.945 3.44032 155.429 0.829373 151.208 0.0193777C150.269 -0.161579 149.657 0.967245 150.338 1.63937C154.722 5.93062 154.567 8.35199 154.912 10.2391Z" fill="white"/>
</g>
<path d="M73.4246 61.7429C73.4246 72.3418 66.077 88.4211 48.2118 88.4211C40.6058 88.4211 34.9637 86.1117 29.8384 83.7162C25.8244 86.5339 21.2935 88.2487 15.9873 88.2487C10.6812 88.2487 8.29515 85.5085 8.29515 82.6908C8.29515 79.9506 11.1119 77.6498 14.9623 77.6498C19.7516 77.6498 23.8518 79.2784 28.0381 81.0708C38.3834 70.4719 44.4475 47.4646 54.6205 34.7287C48.9784 31.0493 42.2252 29.1708 35.3858 29.1708C19.3984 29.1708 1.87782 37.8911 1.87782 52.1695C1.87782 63.1992 18.3734 66.3616 26.7547 55.3319C28.0381 60.459 22.6545 66.1893 14.6177 66.1893C6.58099 66.1893 0 61.6567 0 53.1863C0 38.4771 15.9012 27.7059 35.3858 27.7059C42.4836 27.7059 49.6589 29.6705 55.8178 33.1776C59.6682 28.8175 64.113 25.9135 69.5828 25.655C65.8185 26.6804 62.5711 30.4461 59.496 35.5732C67.6964 41.6481 73.4246 50.7132 73.4246 61.7429ZM26.7547 82.3461C22.8267 80.5538 19.0625 79.0975 14.9623 79.0975C11.8871 79.0975 9.83703 80.6399 9.83703 82.7769C9.83703 84.7416 11.8871 86.7924 15.9873 86.7924C20.0875 86.7924 23.5934 85.0863 26.7547 82.3461ZM67.6964 58.7442C67.6964 49.7653 64.0182 42.5874 58.3848 37.5378C50.8563 51.1354 43.8446 72.428 31.3717 82.6046C35.4719 84.3969 39.7444 86.0255 44.6198 86.0255C60.2626 86.0255 67.6964 71.3164 67.6964 58.7442Z" fill="white"/>
<path d="M103.418 72.9447C99.9123 81.1567 94.1841 87.223 90.9367 87.223C88.9727 87.223 87.4308 85.7667 87.4308 82.7766C87.4308 82.0959 87.6031 81.148 87.7754 80.2088C85.7253 83.3712 83.0722 86.1976 80.3416 86.1976C78.5499 86.1976 76.1553 84.6551 76.1553 81.6651C76.1553 72.9447 87.8615 62.5095 94.1927 67.8951C85.8976 66.8697 81.2891 79.4419 81.2891 82.6043C81.2891 83.4574 81.7198 83.6297 81.9696 83.6297C84.7864 83.6297 90.6007 74.4785 90.0064 70.3768C91.9703 70.7215 94.7957 71.8331 94.7957 74.3062C94.7957 77.9856 91.1176 82.768 91.1176 84.8275C91.1176 85.2583 91.376 85.5082 91.6344 85.5082C93.9429 85.5082 99.585 79.3557 102.66 71.6608C103.332 71.6608 103.763 72.2553 103.418 72.9447Z" fill="white"/>
<path d="M127.778 72.8588C124.358 78.589 117.519 87.2232 113.16 87.2232C110.938 87.2232 109.06 85.5946 109.06 82.5184C109.06 77.6412 114.53 69.7739 114.53 68.2401C114.53 67.6455 114.185 67.5593 113.763 67.5593C111.713 67.5593 103.849 75.3404 100.687 86.6287C99.404 86.6287 98.2067 85.3447 98.2067 82.9492C98.2067 76.0212 102.307 70.6356 101.454 67.8178C104.357 66.8786 107.441 68.5847 107.441 70.8079C109.922 67.9902 112.48 66.1892 114.702 66.1892C117.097 66.1892 119.147 68.0677 119.147 70.7217C119.147 74.5735 113.505 80.726 113.505 84.5778C113.505 85.1724 113.677 85.5171 114.099 85.5171C116.494 85.5171 123.161 78.4167 127.003 70.9803C127.614 70.9716 128.381 71.8333 127.778 72.8588Z" fill="white"/>
<path d="M151.716 72.8588C148.296 78.589 141.457 87.2232 137.098 87.2232C134.876 87.2232 132.998 85.5946 132.998 82.5184C132.998 77.6412 138.468 69.7739 138.468 68.2401C138.468 67.6455 138.123 67.5593 137.701 67.5593C135.651 67.5593 127.787 75.3404 124.625 86.6287C123.342 86.6287 122.145 85.3447 122.145 82.9492C122.145 76.0212 126.245 70.6356 125.392 67.8178C128.295 66.8786 131.379 68.5847 131.379 70.8079C133.86 67.9902 136.418 66.1892 138.64 66.1892C141.035 66.1892 143.085 68.0677 143.085 70.7217C143.085 74.5735 137.443 80.726 137.443 84.5778C137.443 85.1724 137.615 85.5171 138.037 85.5171C140.432 85.5171 147.099 78.4167 150.941 70.9803C151.544 70.9716 152.31 71.8333 151.716 72.8588Z" fill="white"/>
<path d="M192.83 93.3756C192.15 98.0805 189.324 101.071 181.632 101.071C174.965 101.071 166.248 96.2796 158.039 93.884C153.163 100.123 147.444 105 142.568 105C139.062 105 137.443 102.691 137.443 100.037C137.443 96.021 141.629 91.1438 149.838 91.1438C151.208 91.1438 152.827 91.3162 154.541 91.6522C156.419 88.2313 158.22 84.302 159.839 80.1917C157.444 83.6126 154.541 86.1805 151.716 86.1805C148.124 86.1805 146.419 83.9573 146.419 80.6225C146.419 76.9431 151.036 68.6535 151.371 65.9995C153.163 66.1719 155.989 67.3696 155.989 69.9289C155.989 73.7806 150.777 80.0193 150.777 83.2679C150.777 84.121 151.122 84.7242 151.888 84.7242C155.308 84.7242 160.519 79.1663 163.853 66.8526C165.481 67.0249 168.642 67.7918 168.642 71.2128C168.642 76.0038 164.456 85.0603 158.986 92.5915C166.764 94.5562 175.912 97.8048 182.915 97.8048C187.188 97.822 190.263 96.0297 192.83 93.3756ZM153.766 92.8672C152.483 92.6949 151.113 92.5226 149.838 92.5226C142.491 92.5226 138.899 96.8827 138.899 100.045C138.899 102.01 140.096 103.552 142.577 103.552C145.988 103.552 150.002 99.2783 153.766 92.8672Z" fill="white"/>
<path d="M18.8902 91.3602L18.27 91.6532C18.2097 91.4119 18.0718 91.2137 17.8565 91.0672C17.6325 90.9207 17.3913 90.8432 17.1329 90.8432C16.9348 90.8432 16.7711 90.8776 16.6247 90.9552C16.4783 91.0327 16.3577 91.1534 16.2629 91.3257C16.2026 91.4722 16.1682 91.6101 16.1682 91.7566C16.1682 92.1099 16.3318 92.3684 16.6678 92.5493L18.1666 93.1008C18.4422 93.2559 18.649 93.4541 18.7954 93.7126C18.9418 93.9711 19.0107 94.2469 19.0107 94.5399C19.0107 94.7898 18.9591 95.031 18.8557 95.2637C18.7523 95.4963 18.5973 95.6945 18.3992 95.8755C18.0288 96.134 17.6239 96.2633 17.1674 96.2633C16.7539 96.2633 16.3835 96.1599 16.039 95.953C15.8581 95.8152 15.7116 95.6601 15.6169 95.4963C15.5221 95.324 15.436 95.1 15.3499 94.8328L15.9873 94.514C15.9873 94.8415 16.1079 95.1172 16.3404 95.3412C16.573 95.5653 16.8573 95.6687 17.176 95.6687C17.3052 95.6687 17.4258 95.6514 17.5464 95.6084C17.667 95.5653 17.7876 95.505 17.9082 95.4188C18.0288 95.3326 18.1235 95.212 18.1924 95.0569C18.2613 94.9018 18.2958 94.7467 18.2958 94.5829C18.2958 94.3331 18.2355 94.1435 18.1235 94.0228C18.0115 93.9022 17.9254 93.8247 17.8565 93.7816C17.7876 93.7385 17.6584 93.6782 17.4603 93.5834L16.4524 93.2301C16.1509 93.0922 15.9098 92.894 15.7289 92.6527C15.548 92.4115 15.4532 92.1357 15.4532 91.8255C15.4532 91.748 15.4704 91.6015 15.5135 91.3947C15.5566 91.1879 15.6772 90.9638 15.8839 90.7398C16.0906 90.5071 16.3232 90.3692 16.573 90.3175C16.8228 90.2658 17.0468 90.24 17.2363 90.24C17.3224 90.24 17.3827 90.24 17.4344 90.2486C17.4861 90.2572 17.6067 90.2745 17.7962 90.3175C17.9943 90.3606 18.201 90.4726 18.425 90.6622C18.6403 90.8518 18.7954 91.0844 18.8902 91.3602Z" fill="white"/>
<path d="M27.6764 96.1685H26.8581L26.1173 94.3589H23.8002L23.0508 96.1685H22.3014L24.8597 90.1797H25.0492L27.6764 96.1685ZM25.8934 93.8333L24.92 91.3171L23.9725 93.8333H25.8934Z" fill="white"/>
<path d="M34.2401 96.1686H31.3717V90.3435H32.0953V95.5395H34.2401V96.1686V96.1686Z" fill="white"/>
<path d="M43.4052 96.1684H42.5869L41.8461 94.3589H39.529L38.7796 96.1684H38.0302L40.5885 90.1796H40.778L43.4052 96.1684ZM42.139 89.3007C42.0011 89.5506 41.8633 89.7316 41.7255 89.8263C41.5877 89.9297 41.4412 89.9728 41.3034 89.9728C41.2173 89.9728 41.1398 89.9556 41.0622 89.9211C40.9847 89.8867 40.8813 89.8263 40.7435 89.7316C40.6057 89.6368 40.4851 89.5592 40.399 89.4989C40.3042 89.4386 40.2353 89.4041 40.1836 89.4041C40.0975 89.4041 40.0113 89.4386 39.9338 89.5075C39.8563 89.5765 39.7702 89.6971 39.6668 89.8608L39.3222 89.6109C39.5204 89.3266 39.6668 89.1456 39.7788 89.0594C39.8907 88.9733 40.02 88.9302 40.1578 88.9302C40.2784 88.9302 40.3903 88.956 40.4937 88.9991C40.5971 89.0422 40.7004 89.1111 40.8038 89.1887C40.9072 89.2662 41.0019 89.3352 41.0795 89.3955C41.1656 89.4558 41.2345 89.4903 41.2948 89.4903C41.4068 89.4903 41.4929 89.4472 41.5532 89.361C41.6135 89.2749 41.691 89.1628 41.7772 89.0163L42.139 89.3007ZM41.6221 93.8332L40.6488 91.3171L39.7012 93.8332H41.6221Z" fill="white"/>
<path d="M51.8728 93.2129C51.8728 94.0746 51.5713 94.807 50.9597 95.4188C50.3567 96.022 49.6246 96.3322 48.7632 96.3322C47.8932 96.3322 47.1438 96.0392 46.515 95.4533C45.8861 94.8673 45.576 94.1521 45.576 93.299C45.576 92.4373 45.8775 91.7049 46.4891 91.0931C47.1007 90.4813 47.8243 90.1797 48.6857 90.1797C49.5557 90.1797 50.3051 90.4727 50.9339 91.0586C51.5627 91.6446 51.8728 92.3684 51.8728 93.2129ZM51.1492 93.1956C51.1492 92.5321 50.908 91.9634 50.4257 91.4981C49.9433 91.0328 49.3662 90.8087 48.6857 90.8087C48.0224 90.8087 47.4539 91.05 46.9973 91.5326C46.5322 92.0151 46.3082 92.5924 46.3082 93.2732C46.3082 93.9367 46.5494 94.5054 47.0318 94.9621C47.5142 95.4188 48.0913 95.6515 48.7718 95.6515C49.4351 95.6515 50.0036 95.4102 50.4601 94.9276C50.9166 94.4537 51.1492 93.8764 51.1492 93.1956Z" fill="white"/>
<path d="M65.6719 95.8497C65.4652 95.9532 65.2584 96.0307 65.0603 96.0824C64.8536 96.1427 64.6555 96.1686 64.4574 96.1686H62.2522V90.3435H64.733C65.4738 90.4211 66.0595 90.7399 66.4902 91.3258C66.9209 91.9118 67.1363 92.5667 67.1363 93.3164C67.1363 93.8678 67.0157 94.3676 66.7745 94.8157C66.5247 95.2724 66.1629 95.6085 65.6719 95.8497ZM66.361 92.8855C66.3179 92.4288 66.1457 92.0238 65.827 91.6705C65.5169 91.3172 65.1378 91.0932 64.6813 90.9898H62.9327V95.5395H64.4315C65.0259 95.5395 65.4996 95.3069 65.8442 94.8329C66.1887 94.359 66.3696 93.8248 66.3696 93.2216C66.3782 93.1009 66.3696 92.9889 66.361 92.8855Z" fill="white"/>
<path d="M73.7777 96.1686H70.6165V90.3435H73.7777V90.9725H71.3142V92.6959H73.7777V93.2905H71.3142V95.5309H73.7777V96.1686Z" fill="white"/>
<path d="M89.4807 92.5408C89.3257 92.808 89.1017 92.9803 88.8002 93.0751C89.1534 93.144 89.429 93.3164 89.6186 93.5921C89.8081 93.8678 89.9114 94.1867 89.9114 94.54C89.9114 94.8071 89.8597 95.0484 89.7564 95.2724C89.653 95.4965 89.498 95.6946 89.2998 95.8497C89.1706 95.9273 89.0328 95.9962 88.8864 96.0479C88.7313 96.0996 88.5763 96.1427 88.4212 96.1686H86.3367V90.3435L88.1456 90.3694C88.5677 90.3694 88.9208 90.5245 89.2223 90.8261C89.5238 91.1277 89.6702 91.4723 89.6702 91.8687C89.6702 92.0928 89.6099 92.3168 89.4807 92.5408ZM88.9381 91.7222C88.8778 91.481 88.7486 91.2914 88.5504 91.1535C88.3523 91.0156 88.1197 90.9553 87.8527 90.9553H86.9999V92.9114H88.0853C88.3609 92.8683 88.5677 92.7563 88.7227 92.5839C88.8778 92.4116 88.9553 92.1875 88.9553 91.929C88.9553 91.8946 88.9553 91.8601 88.9467 91.817C88.9381 91.7739 88.9381 91.7395 88.9381 91.7222ZM88.783 93.6869C88.6883 93.6266 88.5849 93.5749 88.4643 93.5318C88.3437 93.4887 88.2317 93.4715 88.1284 93.4715H86.9999V95.6171L88.2662 95.5999C88.5504 95.5654 88.7744 95.4447 88.9381 95.2379C89.1017 95.0398 89.1792 94.7985 89.1792 94.5314C89.1792 94.359 89.1448 94.2039 89.0845 94.066C89.0156 93.9282 88.9122 93.7989 88.783 93.6869Z" fill="white"/>
<path d="M97.3798 96.1686H94.2185V90.3435H97.3798V90.9725H94.9162V92.6959H97.3798V93.2905H94.9162V95.5309H97.3798V96.1686Z" fill="white"/>
<path d="M105.055 96.1686H102.186V90.3435H102.91V95.5395H105.055V96.1686Z" fill="white"/>
<path d="M113.117 96.1686H109.956V90.3435H113.117V90.9725H110.654V92.6959H113.117V93.2905H110.654V95.5309H113.117V96.1686Z" fill="white"/>
<path d="M121.49 90.5416L118.217 95.5653H121.455V96.1599H117.183V96.0479L120.473 90.9466H117.665V90.3521H121.49V90.5416Z" fill="white"/>
<path d="M129.949 96.1685H129.13L128.39 94.3589H126.073L125.323 96.1685H124.574L127.132 90.1797H127.322L129.949 96.1685ZM128.166 93.8333L127.192 91.3171L126.245 93.8333H128.166Z" fill="white"/>
</svg>
