<svg width="202" height="111" viewBox="0 0 202 111" fill="none" xmlns="http://www.w3.org/2000/svg">
<g opacity="0.3">
<path opacity="0.3" d="M153.381 39.5894C147.381 30.5807 150.981 4.75521 145.576 3.20261C140.776 1.75833 125.887 11.6065 118.56 24.7043C111.233 37.7931 102.227 57.3722 120.482 69.7478C128.82 76.1749 121.186 79.7495 117.134 77.1588C116.385 76.6804 115.411 77.2761 115.582 78.1517C117.351 87.35 127.511 86.8535 129.126 78.8739C130.372 72.7357 122.918 59.8635 120.599 53.6531C114.95 38.5243 131.644 18.2231 131.644 18.2231C131.644 18.2231 116.818 42.6134 122.72 54.5287C122.747 54.5739 122.774 54.628 122.801 54.6731C139.007 78.585 133.819 83.1164 128.332 85.7523C127.331 86.2307 127.746 87.7652 128.847 87.6479C145.423 86.005 151.351 70.8401 152.407 68.6556C155.042 61.5696 153.427 48.9592 146.885 42.9564C145.323 41.5753 143.88 43.2543 138.448 42.9564C134.198 42.7217 135.073 39.5443 135.659 38.1722C135.822 37.7931 135.722 37.3508 135.425 37.062C134.865 36.5384 134.071 35.7079 134.044 35.2656C134.035 35.058 134.17 34.8775 134.378 34.706C134.874 34.3088 134.901 33.5957 134.441 33.1624C134.17 32.9097 133.963 32.6388 133.918 32.3771C133.855 31.9528 134.387 31.2126 134.883 30.6259C135.271 30.1655 135.172 29.4705 134.667 29.1455C133.963 28.6942 133.16 28.0442 133.133 27.3853C133.088 26.2118 135.903 24.2801 138.592 18.6835C140.243 15.2533 140.478 9.9817 142.228 7.22854C142.761 6.38905 144.069 6.76818 144.069 7.76112C144.105 14.7298 139.269 35.2295 150.711 42.3426C153.111 43.6605 168.478 55.6751 155.872 71.165C169.822 61.4522 157.153 45.1319 153.381 39.5894Z" fill="#532929"/>
<path opacity="0.3" d="M166.041 2.05621C165.202 1.67708 164.345 2.54365 164.724 3.38314C168.794 12.446 164.507 36.0419 177.628 44.2743C190.829 53.6892 188.564 65.3518 184.946 73.3314C184.449 74.4327 182.789 73.873 183.06 72.6905C185.036 64.1873 184.413 58.9338 182.663 54.6009C180.38 48.9592 165.978 33.9477 163.695 26.3743C161.53 19.18 160.772 -0.0379994 151.216 1.32504C150.476 1.43336 150.097 2.2909 150.53 2.89569C159.49 15.3346 154.094 26.961 167.593 44.1389C178.386 57.8776 179.116 75.9311 173.486 86.0411C172.854 87.1695 171.158 86.2307 171.744 85.0752C181.977 64.6116 168.721 48.878 164.544 42.2162C162.062 38.2806 156.865 35.0129 156.377 25.8868C156.07 20.0285 153.354 11.435 150.774 6.26267C150.232 5.18849 148.608 5.80231 148.915 6.96676C152.254 19.5049 148.599 35.5184 161.539 50.9902C171.049 61.4161 175.552 83.3963 161.71 95.8261C160.952 96.5031 161.557 97.7398 162.558 97.5592C178.286 94.6707 187.535 77.2942 191.56 65.758C197.326 48.5801 180.876 33.8123 177.754 27.8095C174.93 22.3754 173.278 5.32389 166.041 2.05621Z" fill="#532929"/>
<path opacity="0.3" d="M186.633 20.9131C182.554 14.4138 177.366 9.8192 173.621 6.87648C172.782 6.21752 171.636 7.18339 172.123 8.1312C178.007 19.4688 177.835 24.948 180.506 28.8386C182.988 32.4493 187.039 33.7401 191.199 43.0738C191.668 44.1299 193.256 43.6966 193.112 42.5502C192.255 36.1051 190.342 26.8256 186.633 20.9131Z" fill="#532929"/>
<path opacity="0.3" d="M162.279 11.7238C162.486 12.8612 163.091 16.4087 163.84 19.9111C164.092 21.0936 165.834 20.886 165.816 19.6764C165.717 13.5563 166.267 13.0327 165.383 9.01581C164.408 4.60172 162.82 1.86662 158.399 1.0181C157.415 0.82854 156.774 2.01104 157.487 2.71513C162.08 7.21045 161.918 9.74697 162.279 11.7238Z" fill="#532929"/>
</g>
<path d="M76.9163 65.6767C76.9163 76.7796 69.2192 93.6235 50.5045 93.6235C42.5368 93.6235 36.6264 91.2044 31.2574 88.6949C27.0524 91.6467 22.3061 93.443 16.7476 93.443C11.1891 93.443 8.68963 90.5725 8.68963 87.6208C8.68963 84.7502 11.6403 82.3401 15.6738 82.3401C20.6909 82.3401 24.9861 84.0462 29.3715 85.9237C40.2087 74.8208 46.5612 50.7194 57.218 37.3778C51.3076 33.5234 44.2332 31.5556 37.0685 31.5556C20.3209 31.5556 1.96712 40.6907 1.96712 55.648C1.96712 67.2022 19.2471 70.5151 28.027 58.9608C29.3715 64.3317 23.7318 70.3345 15.3129 70.3345C6.89395 70.3345 0 65.5864 0 56.7132C0 41.3045 16.6574 30.021 37.0685 30.021C44.5039 30.021 52.0205 32.0791 58.4723 35.753C62.5058 31.1855 67.1619 28.1435 72.8918 27.8727C68.9485 28.9469 65.5467 32.8916 62.3253 38.2625C70.9157 44.6263 76.9163 54.1225 76.9163 65.6767ZM28.027 87.2597C23.9123 85.3821 19.969 83.8566 15.6738 83.8566C12.4524 83.8566 10.3048 85.4724 10.3048 87.711C10.3048 89.7691 12.4524 91.9175 16.7476 91.9175C21.0428 91.9175 24.7154 90.1302 28.027 87.2597ZM70.9157 62.5354C70.9157 53.1295 67.0626 45.6102 61.1613 40.3206C53.2747 54.5648 45.9296 76.8699 32.8636 87.5305C37.1588 89.408 41.6344 91.1141 46.7417 91.1141C63.1284 91.1141 70.9157 75.7054 70.9157 62.5354Z" fill="#5B0E29"/>
<path d="M108.336 77.4114C104.664 86.0139 98.6629 92.3687 95.2611 92.3687C93.2037 92.3687 91.5885 90.8432 91.5885 87.7109C91.5885 86.9978 91.769 86.0049 91.9494 85.021C89.8018 88.3338 87.0226 91.2946 84.1621 91.2946C82.2853 91.2946 79.7767 89.6788 79.7767 86.5465C79.7767 77.4114 92.0397 66.48 98.6719 72.1217C89.9823 71.0476 85.1547 84.2176 85.1547 87.5304C85.1547 88.424 85.6059 88.6046 85.8676 88.6046C88.8183 88.6046 94.9091 79.0182 94.2865 74.7214C96.3439 75.0825 99.3036 76.247 99.3036 78.8376C99.3036 82.6921 95.4505 87.7019 95.4505 89.8593C95.4505 90.3106 95.7212 90.5724 95.992 90.5724C98.4102 90.5724 104.321 84.1273 107.542 76.0664C108.246 76.0664 108.697 76.6893 108.336 77.4114Z" fill="#5B0E29"/>
<path d="M133.855 77.3212C130.272 83.324 123.108 92.3688 118.542 92.3688C116.214 92.3688 114.247 90.6627 114.247 87.4402C114.247 82.331 119.976 74.0896 119.976 72.4828C119.976 71.86 119.616 71.7697 119.173 71.7697C117.026 71.7697 108.787 79.9209 105.476 91.7459C104.131 91.7459 102.877 90.401 102.877 87.8915C102.877 80.634 107.172 74.9923 106.279 72.0405C109.32 71.0566 112.55 72.8439 112.55 75.1728C115.149 72.2211 117.829 70.3345 120.157 70.3345C122.665 70.3345 124.813 72.3023 124.813 75.0825C124.813 79.1175 118.903 85.5626 118.903 89.5976C118.903 90.2204 119.083 90.5815 119.525 90.5815C122.034 90.5815 129.018 83.1434 133.042 75.3534C133.683 75.3443 134.486 76.247 133.855 77.3212Z" fill="#5B0E29"/>
<path d="M158.931 77.3212C155.348 83.324 148.184 92.3688 143.618 92.3688C141.29 92.3688 139.323 90.6627 139.323 87.4402C139.323 82.331 145.053 74.0896 145.053 72.4828C145.053 71.86 144.692 71.7697 144.25 71.7697C142.102 71.7697 133.864 79.9209 130.552 91.7459C129.207 91.7459 127.953 90.401 127.953 87.8915C127.953 80.634 132.248 74.9923 131.355 72.0405C134.396 71.0566 137.626 72.8439 137.626 75.1728C140.225 72.2211 142.905 70.3345 145.233 70.3345C147.742 70.3345 149.889 72.3023 149.889 75.0825C149.889 79.1175 143.979 85.5626 143.979 89.5976C143.979 90.2204 144.159 90.5815 144.601 90.5815C147.11 90.5815 154.094 83.1434 158.119 75.3534C158.75 75.3443 159.553 76.247 158.931 77.3212Z" fill="#5B0E29"/>
<path d="M202 98.8139C201.287 103.742 198.327 106.875 190.269 106.875C183.285 106.875 174.153 101.856 165.554 99.3464C160.447 105.882 154.455 110.991 149.348 110.991C145.675 110.991 143.979 108.572 143.979 105.792C143.979 101.585 148.364 96.4759 156.964 96.4759C158.398 96.4759 160.095 96.6565 161.891 97.0085C163.858 93.4249 165.744 89.3087 167.44 85.0029C164.931 88.5865 161.891 91.2765 158.931 91.2765C155.168 91.2765 153.381 88.9476 153.381 85.4543C153.381 81.5998 158.218 72.9161 158.57 70.1359C160.447 70.3164 163.406 71.5711 163.406 74.2521C163.406 78.287 157.947 84.8224 157.947 88.2255C157.947 89.1191 158.308 89.751 159.111 89.751C162.694 89.751 168.153 83.9287 171.645 71.0295C173.35 71.2101 176.662 72.0134 176.662 75.5971C176.662 80.6159 172.277 90.103 166.547 97.9924C174.695 100.051 184.278 103.454 191.614 103.454C196.09 103.472 199.311 101.594 202 98.8139ZM161.078 98.2813C159.734 98.1007 158.299 97.9202 156.964 97.9202C149.267 97.9202 145.504 102.488 145.504 105.801C145.504 107.859 146.758 109.474 149.357 109.474C152.93 109.474 157.135 104.997 161.078 98.2813Z" fill="#5B0E29"/>
<path d="M19.7885 96.7024L19.1388 97.0093C19.0756 96.7566 18.9313 96.549 18.7057 96.3955C18.4711 96.242 18.2184 96.1608 17.9477 96.1608C17.7402 96.1608 17.5687 96.1969 17.4153 96.2781C17.2619 96.3594 17.1356 96.4858 17.0363 96.6663C16.9732 96.8198 16.9371 96.9642 16.9371 97.1176C16.9371 97.4877 17.1085 97.7585 17.4604 97.9481L19.0305 98.5258C19.3193 98.6883 19.5358 98.8959 19.6892 99.1667C19.8426 99.4375 19.9148 99.7264 19.9148 100.033C19.9148 100.295 19.8607 100.548 19.7524 100.792C19.6441 101.035 19.4817 101.243 19.2742 101.432C18.8861 101.703 18.462 101.839 17.9838 101.839C17.5507 101.839 17.1627 101.73 16.8017 101.514C16.6122 101.369 16.4588 101.207 16.3596 101.035C16.2603 100.855 16.1701 100.62 16.0798 100.34L16.7476 100.006C16.7476 100.349 16.8739 100.638 17.1175 100.873C17.3612 101.107 17.6589 101.216 17.9928 101.216C18.1282 101.216 18.2545 101.198 18.3808 101.153C18.5072 101.107 18.6335 101.044 18.7598 100.954C18.8861 100.864 18.9854 100.737 19.0576 100.575C19.1298 100.412 19.1659 100.25 19.1659 100.078C19.1659 99.8166 19.1027 99.6181 18.9854 99.4917C18.8681 99.3653 18.7779 99.2841 18.7057 99.2389C18.6335 99.1938 18.4981 99.1306 18.2906 99.0313L17.2348 98.6612C16.919 98.5168 16.6664 98.3092 16.4769 98.0564C16.2874 97.8037 16.1881 97.5148 16.1881 97.1899C16.1881 97.1086 16.2062 96.9552 16.2513 96.7385C16.2964 96.5219 16.4227 96.2872 16.6393 96.0525C16.8559 95.8088 17.0995 95.6643 17.3612 95.6102C17.6229 95.556 17.8575 95.5289 18.056 95.5289C18.1462 95.5289 18.2094 95.5289 18.2635 95.538C18.3177 95.547 18.444 95.565 18.6425 95.6102C18.85 95.6553 19.0666 95.7727 19.3012 95.9712C19.5268 96.1698 19.6892 96.4135 19.7885 96.7024Z" fill="#A86C6C"/>
<path d="M28.9925 101.739H28.1352L27.3592 99.8437H24.9319L24.1469 101.739H23.3618L26.0418 95.4657H26.2403L28.9925 101.739ZM27.1246 99.293L26.105 96.6572L25.1124 99.293H27.1246Z" fill="#A86C6C"/>
<path d="M35.8684 101.739H32.8635V95.6372H33.6215V101.08H35.8684V101.739V101.739Z" fill="#A86C6C"/>
<path d="M45.4694 101.739H44.6122L43.8362 99.8437H41.4088L40.6238 101.739H39.8387L42.5187 95.4657H42.7172L45.4694 101.739ZM44.143 94.545C43.9986 94.8068 43.8542 94.9963 43.7098 95.0956C43.5654 95.204 43.412 95.2491 43.2677 95.2491C43.1774 95.2491 43.0962 95.231 43.015 95.1949C42.9338 95.1588 42.8255 95.0956 42.6811 94.9963C42.5368 94.8971 42.4104 94.8158 42.3202 94.7526C42.2209 94.6894 42.1488 94.6533 42.0946 94.6533C42.0044 94.6533 41.9141 94.6894 41.8329 94.7617C41.7517 94.8339 41.6615 94.9602 41.5532 95.1318L41.1923 94.87C41.3998 94.5721 41.5532 94.3825 41.6705 94.2923C41.7878 94.202 41.9232 94.1569 42.0675 94.1569C42.1939 94.1569 42.3112 94.1839 42.4195 94.2291C42.5277 94.2742 42.636 94.3464 42.7443 94.4277C42.8526 94.5089 42.9518 94.5811 43.0331 94.6443C43.1233 94.7075 43.1955 94.7436 43.2586 94.7436C43.376 94.7436 43.4662 94.6985 43.5294 94.6082C43.5925 94.5179 43.6737 94.4006 43.764 94.2471L44.143 94.545ZM43.6015 99.2931L42.5819 96.6573L41.5893 99.2931H43.6015Z" fill="#A86C6C"/>
<path d="M54.3395 98.6431C54.3395 99.5458 54.0236 100.313 53.383 100.954C52.7513 101.586 51.9843 101.911 51.082 101.911C50.1706 101.911 49.3856 101.604 48.7268 100.99C48.0681 100.376 47.7433 99.627 47.7433 98.7334C47.7433 97.8307 48.0591 97.0634 48.6998 96.4225C49.3404 95.7816 50.0984 95.4657 51.0008 95.4657C51.9121 95.4657 52.6972 95.7726 53.3559 96.3864C54.0146 97.0002 54.3395 97.7585 54.3395 98.6431ZM53.5815 98.6251C53.5815 97.93 53.3288 97.3342 52.8235 96.8468C52.3182 96.3593 51.7136 96.1246 51.0008 96.1246C50.306 96.1246 49.7104 96.3774 49.2322 96.8829C48.7449 97.3884 48.5103 97.9932 48.5103 98.7063C48.5103 99.4014 48.7629 99.9971 49.2683 100.476C49.7736 100.954 50.3781 101.198 51.091 101.198C51.7858 101.198 52.3814 100.945 52.8596 100.439C53.3379 99.943 53.5815 99.3382 53.5815 98.6251Z" fill="#A86C6C"/>
<path d="M68.7951 101.405C68.5785 101.514 68.362 101.595 68.1544 101.649C67.9379 101.712 67.7303 101.739 67.5228 101.739H65.2128V95.6372H67.8115C68.5876 95.7184 69.2012 96.0524 69.6523 96.6663C70.1035 97.2801 70.3291 97.9661 70.3291 98.7514C70.3291 99.3291 70.2028 99.8527 69.9501 100.322C69.6884 100.801 69.3094 101.153 68.7951 101.405ZM69.517 98.3001C69.4719 97.8217 69.2914 97.3974 68.9575 97.0273C68.6327 96.6572 68.2356 96.4225 67.7574 96.3142H65.9256V101.08H67.4957C68.1183 101.08 68.6146 100.837 68.9756 100.34C69.3365 99.8437 69.526 99.284 69.526 98.6521C69.535 98.5258 69.526 98.4084 69.517 98.3001Z" fill="#A86C6C"/>
<path d="M77.2862 101.739H73.9746V95.6372H77.2862V96.2962H74.7055V98.1015H77.2862V98.7244H74.7055V101.071H77.2862V101.739Z" fill="#A86C6C"/>
<path d="M93.7361 97.939C93.5737 98.2189 93.339 98.3994 93.0232 98.4987C93.3932 98.5709 93.6819 98.7514 93.8805 99.0403C94.079 99.3291 94.1873 99.6631 94.1873 100.033C94.1873 100.313 94.1331 100.566 94.0248 100.801C93.9166 101.035 93.7541 101.243 93.5466 101.405C93.4112 101.487 93.2669 101.559 93.1135 101.613C92.951 101.667 92.7886 101.712 92.6262 101.739H90.4425V95.6372L92.3374 95.6643C92.7796 95.6643 93.1496 95.8268 93.4654 96.1427C93.7812 96.4586 93.9346 96.8197 93.9346 97.2349C93.9346 97.4696 93.8714 97.7043 93.7361 97.939ZM93.1676 97.0815C93.1044 96.8287 92.9691 96.6302 92.7615 96.4857C92.554 96.3413 92.3104 96.2781 92.0306 96.2781H91.1373V98.3272H92.2743C92.563 98.282 92.7796 98.1647 92.942 97.9842C93.1044 97.8036 93.1856 97.5689 93.1856 97.2981C93.1856 97.262 93.1857 97.2259 93.1766 97.1808C93.1676 97.1356 93.1676 97.0995 93.1676 97.0815ZM93.0052 99.1396C92.9059 99.0764 92.7976 99.0222 92.6713 98.9771C92.545 98.932 92.4277 98.9139 92.3194 98.9139H91.1373V101.162L92.4638 101.144C92.7615 101.107 92.9962 100.981 93.1676 100.764C93.339 100.557 93.4203 100.304 93.4203 100.024C93.4203 99.8437 93.3842 99.6812 93.321 99.5368C93.2488 99.3923 93.1405 99.2569 93.0052 99.1396Z" fill="#A86C6C"/>
<path d="M102.011 101.739H98.699V95.6372H102.011V96.2962H99.4299V98.1015H102.011V98.7244H99.4299V101.071H102.011V101.739Z" fill="#A86C6C"/>
<path d="M110.05 101.739H107.046V95.6372H107.804V101.08H110.05V101.739Z" fill="#A86C6C"/>
<path d="M118.497 101.739H115.185V95.6372H118.497V96.2962H115.916V98.1015H118.497V98.7244H115.916V101.071H118.497V101.739Z" fill="#A86C6C"/>
<path d="M127.267 95.8448L123.838 101.107H127.231V101.73H122.756V101.613L126.203 96.2691H123.261V95.6462H127.267V95.8448Z" fill="#A86C6C"/>
<path d="M136.128 101.739H135.271L134.495 99.8437H132.068L131.283 101.739H130.498L133.178 95.4657H133.376L136.128 101.739ZM134.261 99.293L133.241 96.6572L132.248 99.293H134.261Z" fill="#A86C6C"/>
</svg>
